<svg version="1.1" xmlns="http://www.w3.org/2000/svg"  viewBox="0 0 100 22" width="100" height="22"><path d="M0 0 C33 0 66 0 100 0 C100 7.26 100 14.52 100 22 C67 22 34 22 0 22 C0 14.74 0 7.48 0 0 Z " transform="translate(0,0)" style="fill: #000000;"></path><path d="M0 0 C31 0 31 0 34 1 C33.67 2.65 33.34 4.3 33 6 C33.99 5.34 34.98 4.68 36 4 C38.04296875 3.8046875 38.04296875 3.8046875 40.1875 3.875 C42.0746875 3.936875 42.0746875 3.936875 44 4 C44.33 3.34 44.66 2.68 45 2 C44.34 2 43.68 2 43 2 C43 1.34 43 0.68 43 0 C48.61 0 54.22 0 60 0 C60.66 1.32 61.32 2.64 62 4 C63.98 4 65.96 4 68 4 C68.33 2.68 68.66 1.36 69 0 C69.99 0 70.98 0 72 0 C72 1.32 72 2.64 72 4 C73.65 4.33 75.3 4.66 77 5 C77 8.63 77 12.26 77 16 C76.01 15.67 75.02 15.34 74 15 C74 12.69 74 10.38 74 8 C73.34 8 72.68 8 72 8 C72 10.64 72 13.28 72 16 C69.68756208 16.02685412 67.3750373 16.04632841 65.0625 16.0625 C63.77472656 16.07410156 62.48695312 16.08570312 61.16015625 16.09765625 C58 16 58 16 57 15 C56.85884839 12.32941149 56.95752893 9.67567762 57 7 C56.34 7 55.68 7 55 7 C55 8.65 55 10.3 55 12 C54.01 12 53.02 12 52 12 C52.495 13.98 52.495 13.98 53 16 C52.36191406 16.06058594 51.72382812 16.12117188 51.06640625 16.18359375 C49.82697266 16.30927734 49.82697266 16.30927734 48.5625 16.4375 C47.32693359 16.55931641 47.32693359 16.55931641 46.06640625 16.68359375 C44.01337975 16.78930815 44.01337975 16.78930815 43 18 C41.48071962 18.07179964 39.95832518 18.08392007 38.4375 18.0625 C37.61121094 18.05347656 36.78492188 18.04445313 35.93359375 18.03515625 C34.97646484 18.01775391 34.97646484 18.01775391 34 18 C34.33 16.68 34.66 15.36 35 14 C34.34 14 33.68 14 33 14 C33 14.66 33 15.32 33 16 C32.071875 15.7215625 32.071875 15.7215625 31.125 15.4375 C28.95839822 14.76313824 28.95839822 14.76313824 27 16 C24.82175039 16.08559118 22.64084745 16.10713412 20.4609375 16.09765625 C19.15898438 16.09443359 17.85703125 16.09121094 16.515625 16.08789062 C15.13541601 16.07953466 13.75520768 16.07106971 12.375 16.0625 C10.98698074 16.05748501 9.59895978 16.0529221 8.2109375 16.04882812 C4.80724868 16.03700976 1.40364561 16.02053434 -2 16 C-2 15.01 -2 14.02 -2 13 C-1.34 13 -0.68 13 0 13 C0 8.71 0 4.42 0 0 Z " transform="translate(22,3)" style="fill: #35A1EE;"></path><path d="M0 0 C31 0 31 0 34 1 C33.67 5.95 33.34 10.9 33 16 C31.68 15.67 30.36 15.34 29 15 C28.01 15.495 28.01 15.495 27 16 C24.82175039 16.08559118 22.64084745 16.10713412 20.4609375 16.09765625 C19.15898438 16.09443359 17.85703125 16.09121094 16.515625 16.08789062 C15.13541601 16.07953466 13.75520768 16.07106971 12.375 16.0625 C10.98698074 16.05748501 9.59895978 16.0529221 8.2109375 16.04882812 C4.80724868 16.03700976 1.40364561 16.02053434 -2 16 C-2 15.01 -2 14.02 -2 13 C-1.34 13 -0.68 13 0 13 C0 8.71 0 4.42 0 0 Z " transform="translate(22,3)" style="fill: #35A1F1;"></path><path d="M0 0 C3.60067126 0.87838956 4.94522296 2.42198203 6.9375 5.47265625 C7.76994577 9.89902656 7.43747008 13.38181244 5.5625 17.47265625 C3.9375 19.47265625 3.9375 19.47265625 1.9375 20.47265625 C-2.80525933 20.93915717 -4.99110438 21.14227851 -9.0625 18.59765625 C-11.87239899 14.20718908 -12.0776866 10.54858924 -11.0625 5.47265625 C-8.1365085 0.90079454 -5.25845972 -0.38840896 0 0 Z " transform="translate(12.0625,0.52734375)" style="fill: #359EEE;"></path><path d="M0 0 C5.33333333 0 10.66666667 0 16 0 C16 0.66 16 1.32 16 2 C15.34 2 14.68 2 14 2 C14.66 5.63 15.32 9.26 16 13 C18.97 13.66 21.94 14.32 25 15 C25 15.33 25 15.66 25 16 C16.09 16 7.18 16 -2 16 C-2 15.01 -2 14.02 -2 13 C-1.34 13 -0.68 13 0 13 C0 8.71 0 4.42 0 0 Z " transform="translate(22,3)" style="fill: #36A6F7;"></path><path d="M0 0 C0.99 0 1.98 0 3 0 C3 1.32 3 2.64 3 4 C4.65 4.33 6.3 4.66 8 5 C8 8.63 8 12.26 8 16 C7.01 15.67 6.02 15.34 5 15 C5 12.69 5 10.38 5 8 C4.34 8 3.68 8 3 8 C3 10.64 3 13.28 3 16 C1.37536158 16.05395478 -0.24978541 16.09277195 -1.875 16.125 C-2.77992187 16.14820312 -3.68484375 16.17140625 -4.6171875 16.1953125 C-7 16 -7 16 -9 14 C-9.1953125 11.8359375 -9.1953125 11.8359375 -9.125 9.375 C-9.10695313 8.55773438 -9.08890625 7.74046875 -9.0703125 6.8984375 C-9.04710938 6.27195312 -9.02390625 5.64546875 -9 5 C-6.29120665 3.64560332 -3.99066732 3.93498549 -1 4 C-0.67 2.68 -0.34 1.36 0 0 Z " transform="translate(91,3)" style="fill: #36AFF9;"></path><path d="M0 0 C1.8871875 0.061875 1.8871875 0.061875 3.8125 0.125 C3.8125 3.425 3.8125 6.725 3.8125 10.125 C6.4525 10.455 9.0925 10.785 11.8125 11.125 C11.8125 11.455 11.8125 11.785 11.8125 12.125 C9.76171875 12.35286458 7.7109375 12.58072917 5.66015625 12.80859375 C3.80109771 12.94386614 3.80109771 12.94386614 2.8125 14.125 C1.29321962 14.19679964 -0.22917482 14.20892007 -1.75 14.1875 C-2.57628906 14.17847656 -3.40257812 14.16945313 -4.25390625 14.16015625 C-4.89199219 14.14855469 -5.53007813 14.13695312 -6.1875 14.125 C-5.8575 12.805 -5.5275 11.485 -5.1875 10.125 C-5.8475 10.125 -6.5075 10.125 -7.1875 10.125 C-7.48046875 4.0703125 -7.48046875 4.0703125 -7.1875 2.125 C-4.09861478 0.06574319 -3.47814073 -0.1140374 0 0 Z " transform="translate(62.1875,6.875)" style="fill: #2F9FE5;"></path><path d="M0 0 C2.31 0 4.62 0 7 0 C7.84681133 5.08086796 8.09038099 9.84828377 8 15 C2.375 15.25 2.375 15.25 -1 13 C-2.28317892 9.15046324 -2.06643637 6.05261865 -2 2 C-1.34 2 -0.68 2 0 2 C0 1.34 0 0.68 0 0 Z " transform="translate(38,3)" style="fill: #2E97E9;"></path><path d="M0 0 C2.64 0 5.28 0 8 0 C8 0.66 8 1.32 8 2 C7.34 2 6.68 2 6 2 C6.66 5.63 7.32 9.26 8 13 C12.455 13.99 12.455 13.99 17 15 C17 15.33 17 15.66 17 16 C14.37438891 16.08074203 11.75124324 16.1403623 9.125 16.1875 C8.00544922 16.22520508 8.00544922 16.22520508 6.86328125 16.26367188 C4.6953125 16.29296875 4.6953125 16.29296875 1 16 C0.34 15.01 -0.32 14.02 -1 13 C-0.34 13 0.32 13 1 13 C0.649375 11.783125 0.29875 10.56625 -0.0625 9.3125 C-0.93456352 5.87913104 -1.07703169 3.44650141 0 0 Z " transform="translate(30,3)" style="fill: #38ACF9;"></path><path d="M0 0 C0.99 0 1.98 0 3 0 C3 1.32 3 2.64 3 4 C4.65 4.33 6.3 4.66 8 5 C8 8.63 8 12.26 8 16 C7.01 15.67 6.02 15.34 5 15 C5 12.69 5 10.38 5 8 C4.34 8 3.68 8 3 8 C3 10.64 3 13.28 3 16 C2.01 16 1.02 16 0 16 C-1.16306443 12.45049966 -0.92365049 9.44176052 -0.5625 5.75 C-0.46066406 4.67234375 -0.35882813 3.5946875 -0.25390625 2.484375 C-0.17011719 1.66453125 -0.08632812 0.8446875 0 0 Z " transform="translate(91,3)" style="fill: #37A5FA;"></path><path d="M0 0 C0.99 0.33 1.98 0.66 3 1 C2.67 5.95 2.34 10.9 2 16 C1.34 16 0.68 16 0 16 C-0.06058594 15.31292969 -0.12117188 14.62585937 -0.18359375 13.91796875 C-0.26738281 13.01691406 -0.35117187 12.11585937 -0.4375 11.1875 C-0.51871094 10.29417969 -0.59992187 9.40085937 -0.68359375 8.48046875 C-0.93489767 5.87256441 -0.93489767 5.87256441 -2 3 C-1.34 2.01 -0.68 1.02 0 0 Z " transform="translate(53,3)" style="fill: #3CA7FA;"></path><path d="M0 0 C1.04976964 3.14930893 1.10131595 5.38814456 1.0625 8.6875 C1.05347656 9.68136719 1.04445313 10.67523438 1.03515625 11.69921875 C1.02355469 12.45847656 1.01195313 13.21773437 1 14 C-0.32 14 -1.64 14 -3 14 C-3 10.04 -3 6.08 -3 2 C-2.01 2 -1.02 2 0 2 C0 1.34 0 0.68 0 0 Z " transform="translate(82,4)" style="fill: #42B7FB;"></path><path d="M0 0 C0.99 0 1.98 0 3 0 C3 3.63 3 7.26 3 11 C2.34 11 1.68 11 1 11 C-0.28317892 7.15046324 -0.06643637 4.05261865 0 0 Z " transform="translate(36,5)" style="fill: #000000;"></path><path d="M0 0 C0.66 0.33 1.32 0.66 2 1 C2 3.97 2 6.94 2 10 C1.01 9.67 0.02 9.34 -1 9 C-1.09765625 2.84765625 -1.09765625 2.84765625 -1 1 C-0.67 0.67 -0.34 0.34 0 0 Z " transform="translate(97,9)" style="fill: #3BA7F7;"></path><path d="M0 0 C2.97 0 5.94 0 9 0 C9 0.99 9 1.98 9 3 C6.1875 3.625 6.1875 3.625 3 4 C2.01 3.34 1.02 2.68 0 2 C0 1.34 0 0.68 0 0 Z " transform="translate(73,3)" style="fill: #34AFF9;"></path><path d="M0 0 C0.33 0 0.66 0 1 0 C1 3.3 1 6.6 1 10 C0.67 9.34 0.34 8.68 0 8 C-1.32 8 -2.64 8 -4 8 C-3.34 6.35 -2.68 4.7 -2 3 C-1.34 3 -0.68 3 0 3 C0 2.01 0 1.02 0 0 Z " transform="translate(90,4)" style="fill: #3281E7;"></path><path d="M0 0 C0.66 0.33 1.32 0.66 2 1 C1.34 1.66 0.68 2.32 0 3 C-0.6425235 5.06874034 -0.6425235 5.06874034 -1 7 C-0.34 7 0.32 7 1 7 C0.67 7.99 0.34 8.98 0 10 C-0.66 10 -1.32 10 -2 10 C-2 7.03 -2 4.06 -2 1 C-1.34 0.67 -0.68 0.34 0 0 Z " transform="translate(84,7)" style="fill: #327BF0;"></path><path d="M0 0 C-0.33 2.31 -0.66 4.62 -1 7 C-1.99 6.67 -2.98 6.34 -4 6 C-2.92307692 0 -2.92307692 0 0 0 Z " transform="translate(78,8)" style="fill: #2CB4FC;"></path><path d="M0 0 C0.99 0.33 1.98 0.66 3 1 C3 1.99 3 2.98 3 4 C1.68 4.33 0.36 4.66 -1 5 C-1.33 4.34 -1.66 3.68 -2 3 C-1.34 2.01 -0.68 1.02 0 0 Z " transform="translate(53,3)" style="fill: #32ADF9;"></path></svg>